<svg width="512" height="512" viewBox="0 0 512 512" fill="none" xmlns="http://www.w3.org/2000/svg">
<g clip-path="url(#clip0_497_118)">
<path d="M512 341.405L469.519 289.542H423.655V397.605H86.7618V291.683H43.4495L0 340.162L22.5295 360.354L50.205 329.474V485.009H462.356V328.54L488.596 360.575L512 341.405Z" fill="black"/>
<path d="M299.527 180.898V367.352H393.403V113.709H438.914V60.5495C438.914 42.0447 423.859 26.9897 405.355 26.9897H369.66C362.686 59.6066 333.652 84.1429 298.986 84.1429C264.318 84.1429 235.284 59.6056 228.311 26.9897H192.617C174.112 26.9897 159.058 42.0447 159.058 60.5495V113.708H204.718V180.897H299.527V180.898Z" fill="black"/>
<path d="M298.984 53.8907C316.826 53.8907 332.096 42.7092 338.183 26.9907H259.784C265.871 42.7092 281.142 53.8907 298.984 53.8907ZM208.27 283.415V367.352H269.274V211.151H117.015V367.352H178.017V283.415H208.27Z" fill="black"/>
</g>
<defs>
<clipPath id="clip0_497_118">
<rect width="512" height="512" fill="white"/>
</clipPath>
</defs>
</svg>
