<svg width="512" height="512" viewBox="0 0 512 512" fill="none" xmlns="http://www.w3.org/2000/svg">
<g clip-path="url(#clip0_495_93)">
<path d="M432.733 512H79.267C75.9218 512 72.6726 510.882 70.0359 508.823C67.3992 506.764 65.5263 503.883 64.715 500.638L33.556 376.001C11.885 352.83 0 322.775 0 290.896V239.933C0 235.954 1.58 232.139 4.394 229.327L48.2 185.521V15C48.2 6.716 54.916 0 63.2 0H127.467C135.751 0 142.467 6.716 142.467 15V185.364C206.302 244.747 305.708 244.746 369.533 185.365V15C369.533 6.716 376.249 0 384.533 0H448.8C457.084 0 463.8 6.716 463.8 15V185.521L507.607 229.328C510.42 232.141 512.001 235.956 512.001 239.934V290.897C512.001 322.776 500.116 352.831 478.445 376.001L447.286 500.638C446.474 503.883 444.601 506.764 441.964 508.823C439.328 510.882 436.078 512 432.733 512Z" fill="black"/>
</g>
<defs>
<clipPath id="clip0_495_93">
<rect width="512" height="512" fill="white"/>
</clipPath>
</defs>
</svg>
