<svg width="512" height="512" viewBox="0 0 512 512" fill="none" xmlns="http://www.w3.org/2000/svg">
<g clip-path="url(#clip0_497_114)">
<path d="M508.911 435.378C501.498 405.529 493.748 375.681 484.312 346.192C472.855 310.229 460.387 274.627 446.571 239.743C435.114 210.974 417.592 186.519 392.319 169.617L380.188 160.986C389.286 146.242 385.916 132.576 378.503 119.629C367.72 100.21 356.937 80.4306 345.48 61.3707C331.664 37.9952 313.131 20.0141 288.869 9.22541C280.781 5.62919 272.02 3.47146 263.596 0.594478C255.171 -0.484389 243.714 0.234855 243.714 0.234855C224.507 4.1907 206.31 11.7428 192.158 26.1277C182.722 35.8375 173.624 46.6261 166.885 58.4937C153.406 82.2287 141.275 106.323 129.481 131.137C126.448 137.251 126.448 145.522 126.448 152.715C126.448 156.671 129.144 160.267 130.829 164.223C123.078 169.257 114.991 173.213 108.252 178.608C85.6745 196.589 71.5217 220.683 61.4126 247.295C40.1833 303.396 20.9759 360.217 6.82311 418.835C2.77944 435.738 1.76853 453.719 0.083667 471.34C-0.590277 479.971 2.77944 486.804 11.2037 490.4C24.0087 495.794 36.4766 501.548 48.6076 508.381C58.0428 513.776 65.4562 511.258 72.8696 504.785C83.9897 495.075 91.403 482.129 97.8055 468.463C99.8273 464.507 101.512 460.192 104.208 454.438C105.219 458.034 105.893 460.192 106.567 462.35C111.621 473.498 116.339 484.646 121.731 495.435C125.1 502.268 130.492 504.785 137.905 504.785C174.635 504.785 211.365 504.425 248.095 504.425V222.122C212.039 212.052 180.701 192.633 154.08 164.942C151.721 162.425 149.362 160.267 147.34 157.749C142.286 152.355 143.297 145.522 150.373 144.084C161.493 141.566 172.613 139.049 184.07 138.33C207.995 136.532 231.92 135.812 262.585 134.374C286.847 136.172 317.511 138.33 348.513 140.847C351.882 141.207 355.589 142.286 358.959 143.365C368.057 146.242 370.416 154.872 363.339 161.705C351.882 172.494 340.088 183.283 327.62 192.633C308.076 207.018 286.51 216.368 263.596 222.481V504.425C297.63 504.425 331.327 504.425 365.361 505.145C379.851 505.504 387.601 499.031 393.667 487.164C394.678 485.365 395.689 483.208 396.363 481.05C399.732 472.059 402.765 463.069 406.135 453.359C407.483 456.236 408.494 458.753 409.505 460.911C415.907 476.375 423.994 490.4 435.451 501.908C444.55 510.899 454.322 514.495 466.453 508.022C479.595 500.829 492.737 493.996 505.879 486.804C507.9 485.725 509.248 483.208 509.922 480.69C513.292 465.586 512.281 450.122 508.911 435.378Z" fill="black"/>
</g>
<defs>
<clipPath id="clip0_497_114">
<rect width="512" height="511.321" fill="white"/>
</clipPath>
</defs>
</svg>
