<svg width="513" height="512" viewBox="0 0 513 512" fill="none" xmlns="http://www.w3.org/2000/svg">
<path d="M329.447 0H183.324C182.491 0.000125142 181.675 0.230901 180.965 0.666737C180.255 1.10257 179.68 1.72644 179.304 2.46915C176.907 7.18455 173.058 15.1553 168.84 25.4382C167.624 28.4059 169.801 31.6643 173.008 31.6643H339.767C342.975 31.6643 345.152 28.4049 343.934 25.4372C339.714 15.1513 335.862 7.18151 333.464 2.46713C333.088 1.72496 332.513 1.10155 331.804 0.666069C331.095 0.230584 330.279 3.7056e-05 329.447 0ZM158.007 283.115C156.888 291.312 155.731 299.789 155.218 308.231C153.632 334.351 160.153 361.64 166.46 388.03C169.377 400.238 172.394 412.861 174.509 425.049C175.294 429.554 176.062 433.863 176.807 438.043C180.975 461.43 184.348 480.354 186.26 507.798C186.339 508.937 186.846 510.004 187.68 510.784C188.514 511.564 189.613 511.998 190.755 512H211.094C212.22 512 213.305 511.578 214.135 510.818C214.966 510.058 215.483 509.015 215.583 507.894L245.379 174.107C245.959 167.624 251.034 164.222 255.747 164.214H255.764C260.472 164.214 265.546 167.595 266.147 174.067L297.158 507.91C297.263 509.028 297.78 510.067 298.61 510.823C299.44 511.58 300.523 512 301.646 512H322.015C323.157 511.998 324.255 511.564 325.09 510.784C325.924 510.004 326.431 508.937 326.51 507.798C328.421 480.354 331.794 461.43 335.963 438.043C336.707 433.863 337.475 429.554 338.262 425.046C340.375 412.86 343.392 400.237 346.309 388.029C352.615 361.639 359.136 334.351 357.551 308.231C357.038 299.789 355.881 291.311 354.761 283.115C352.299 265.088 349.754 246.446 353.894 227.041C359.96 198.608 366.917 156.541 365.609 117.608C364.72 91.155 358.236 65.3672 351.111 44.5217C350.747 43.4537 350.057 42.5265 349.139 41.8701C348.221 41.2138 347.121 40.8613 345.992 40.8621H166.787C165.658 40.8613 164.558 41.2138 163.64 41.8701C162.722 42.5265 162.032 43.4537 161.668 44.5217C154.538 65.3783 148.048 91.1752 147.16 117.608C145.852 156.54 152.809 198.607 158.875 227.041C163.015 246.446 160.468 265.088 158.007 283.115Z" fill="black"/>
</svg>
