<svg width="166" height="68" viewBox="0 0 166 68" fill="none" xmlns="http://www.w3.org/2000/svg">
<path d="M139.73 32.467L139.862 33.2193C139.958 33.7632 140.477 34.1264 141.021 34.0305L146.053 33.1431C146.438 33.0754 146.747 32.7905 146.847 32.4133L147.957 28.2048C148.174 27.3799 149.258 27.1888 149.745 27.8895L153.743 33.6465C154.159 34.2459 153.813 35.0749 153.095 35.2017L93.7005 45.6745C93.3232 45.741 92.941 45.5861 92.7165 45.2756L88.9464 40.061C88.4524 39.3777 87.3865 39.5749 87.1697 40.3897L85.8377 45.394C85.7668 45.6602 85.8089 45.944 85.9542 46.1781L89.6266 52.1009C89.8421 52.4484 90.2475 52.6297 90.6501 52.5587L164.522 39.5331C164.963 39.4553 165.258 39.0345 165.18 38.5932C165.159 38.471 165.109 38.3553 165.036 38.2552L146.936 13.5018C146.448 12.8341 145.406 13.0141 145.17 13.8069L139.756 32.0082C139.712 32.157 139.703 32.3141 139.73 32.467Z" fill="white"/>
<path d="M134.859 14.6829L136.046 18.5353C136.223 19.1102 135.856 19.7102 135.264 19.8146L133.581 20.1113C132.787 20.2514 132.477 21.226 133.044 21.7994L137.042 25.8405C137.185 25.9851 137.281 26.1699 137.316 26.3702L137.931 29.8574C137.975 30.1083 137.922 30.3666 137.782 30.5796L135.036 34.7667C134.885 34.9973 134.645 35.1551 134.373 35.203L129.517 36.0592C129.019 36.1471 128.533 35.8487 128.387 35.3642L127.13 31.2145C126.962 30.6598 127.3 30.0789 127.865 29.9499L129.894 29.4866C130.669 29.3095 130.938 28.3415 130.364 27.7904L126.129 23.7238C125.976 23.5768 125.874 23.3851 125.837 23.1762L125.284 20.0371C125.257 19.8842 125.266 19.7271 125.31 19.5783L125.826 17.8429C125.862 17.7229 125.92 17.6107 125.997 17.5121L127.715 15.3138C127.867 15.1191 128.086 14.9877 128.329 14.9448L133.73 13.9926C134.226 13.905 134.71 14.201 134.859 14.6829Z" fill="white"/>
<path d="M68.1994 25.8856L70.6994 29.5064C71.1134 30.106 70.7677 30.9329 70.0502 31.0594L67.2699 31.5496C66.4834 31.6883 66.1688 32.6477 66.7205 33.2252L68.6721 35.2681C68.9673 35.5772 69.0335 36.0397 68.8368 36.4192L67.6345 38.7381C67.2532 39.4735 67.8801 40.327 68.6959 40.1832L71.4822 39.6919C72.2211 39.5616 72.835 40.2613 72.6097 40.977L71.1713 45.5462C71.0592 45.902 70.7585 46.1659 70.3911 46.2307L58.644 48.302C58.1194 48.3945 57.6191 48.0442 57.5266 47.5196C57.4942 47.3361 57.5157 47.1472 57.5884 46.9757L61.5265 37.6844C61.6804 37.3211 61.6064 36.9012 61.3375 36.6125L54.4591 29.2284C54.3321 29.0921 54.2473 28.922 54.215 28.7385C54.1224 28.2139 54.4727 27.7136 54.9974 27.6211L67.2028 25.4689C67.5879 25.401 67.9772 25.5638 68.1994 25.8856Z" fill="white"/>
<path d="M93.3184 41.8498L90.8183 38.2289C90.4043 37.6293 90.75 36.8025 91.4676 36.6759L94.2478 36.1857C95.0344 36.047 95.349 35.0877 94.7973 34.5101L92.8457 32.4672C92.5505 32.1582 92.4843 31.6956 92.681 31.3162L93.8833 28.9973C94.2646 28.2619 93.6377 27.4083 92.8219 27.5522L90.0356 28.0435C89.2967 28.1738 88.6828 27.4741 88.9081 26.7584L90.3465 22.1892C90.4585 21.8333 90.7593 21.5694 91.1267 21.5047L102.874 19.4333C103.398 19.3408 103.899 19.6911 103.991 20.2157C104.024 20.3992 104.002 20.5881 103.929 20.7597L99.9913 30.051C99.8373 30.4143 99.9114 30.8341 100.18 31.1228L107.059 38.5069C107.186 38.6432 107.27 38.8134 107.303 38.9969C107.395 39.5215 107.045 40.0218 106.52 40.1143L94.315 42.2664C93.9299 42.3343 93.5406 42.1716 93.3184 41.8498Z" fill="white"/>
<path d="M69.3083 15.7049L1.56416 27.65C0.839223 27.7778 0.49619 28.6186 0.924807 29.2171L18.3433 53.5378C18.8276 54.214 19.8777 54.0379 20.1148 53.2407L25.681 34.5278C25.7252 34.379 25.7342 34.2219 25.7073 34.069L25.6614 33.8091C25.5655 33.2652 25.0469 32.902 24.503 32.9979L19.6952 33.8457C19.3222 33.9114 19.0183 34.1823 18.9104 34.5454L17.6078 38.9243C17.3688 39.728 16.3062 39.8983 15.8279 39.2096L11.7814 33.3819C11.3651 32.7825 11.7104 31.9535 12.4291 31.8267L66.4013 22.31C66.7816 22.2429 67.1664 22.4008 67.3901 22.7156L81.6677 42.8092C82.1569 43.4976 83.2265 43.3072 83.4479 42.4922L88.638 23.3908C88.8302 22.6835 88.2212 22.0165 87.4994 22.1438L83.0017 22.9369C82.6343 23.0017 82.3335 23.2656 82.2215 23.6214L80.8819 27.8765C80.6358 28.6583 79.6052 28.8282 79.1211 28.1668L70.2889 16.0991C70.0638 15.7916 69.6835 15.6387 69.3083 15.7049Z" fill="white"/>
<path d="M32.6711 31.8115L28.7318 32.5061C28.1879 32.602 27.8248 33.1207 27.9207 33.6646L29.5703 43.0202L31.22 52.3759C31.3159 52.9198 31.8345 53.283 32.3784 53.1871L36.3177 52.4925C36.8616 52.3966 37.2247 51.8779 37.1288 51.334L33.8295 32.6227C33.7336 32.0788 33.2149 31.7156 32.6711 31.8115Z" fill="white"/>
<path d="M56.511 43.5738C57.018 43.7927 57.2557 44.3841 56.9896 44.868C56.088 46.5073 54.7614 47.8816 53.1415 48.8414C51.2338 49.9717 49.0173 50.469 46.8096 50.2621C44.6019 50.0552 42.5164 49.1547 40.8519 47.6897C39.1874 46.2246 38.0295 44.2703 37.544 42.1067C37.0586 39.9431 37.2706 37.6814 38.1495 35.6456C39.0285 33.6099 40.5294 31.9047 42.4371 30.7745C44.3448 29.6442 46.5613 29.1468 48.769 29.3537C50.6437 29.5294 52.4303 30.2052 53.9457 31.3021C54.3931 31.626 54.4309 32.2622 54.066 32.6768L51.225 35.9046C50.8601 36.3191 50.2313 36.3465 49.7424 36.0897C49.26 35.8363 48.73 35.6777 48.1812 35.6262C47.2981 35.5435 46.4115 35.7424 45.6484 36.1945C44.8853 36.6466 44.285 37.3287 43.9334 38.143C43.5818 38.9573 43.497 39.862 43.6912 40.7274C43.8854 41.5929 44.3486 42.3746 45.0143 42.9606C45.6801 43.5466 46.5143 43.9068 47.3974 43.9896C48.2805 44.0723 49.1671 43.8734 49.9302 43.4213C50.4045 43.1403 50.8159 42.7705 51.1438 42.3353C51.4761 41.8942 52.0563 41.6503 52.5633 41.8692L56.511 43.5738Z" fill="white"/>
<path d="M106.174 19.8935L109.514 38.838C109.53 38.9268 109.614 38.9861 109.703 38.9704L114.166 38.1835C114.71 38.0876 115.073 37.5689 114.977 37.025L112.802 24.6905C112.706 24.1466 113.07 23.628 113.614 23.5321L115.171 23.2574C115.972 23.1162 116.597 23.9385 116.248 24.6724L114.222 28.9232C114.071 29.2399 114.097 29.6124 114.291 29.9049L118.729 36.6176C118.944 36.9428 119.328 37.1134 119.714 37.0546L124.499 36.3248C125.219 36.215 125.584 35.3973 125.185 34.7883L121.004 28.4056C120.807 28.1051 120.786 27.722 120.95 27.4021L122.303 24.7573C122.403 24.5635 122.436 24.3426 122.398 24.1282L121.665 19.9689C121.61 19.6588 121.412 19.3926 121.131 19.2503L117.019 17.1686C116.826 17.0709 116.607 17.0384 116.394 17.0759L106.985 18.735C106.441 18.8309 106.078 19.3496 106.174 19.8935Z" fill="white"/>
</svg>
