<svg width="512" height="512" viewBox="0 0 512 512" fill="none" xmlns="http://www.w3.org/2000/svg">
<path d="M357.52 501.76C357.519 502.937 357.209 504.077 356.641 504.99C356.073 505.903 355.282 506.533 354.4 506.775C343.476 510.223 332.279 511.977 321.04 512C309.723 511.971 298.446 510.217 287.44 506.775C286.558 506.533 285.767 505.903 285.199 504.99C284.631 504.077 284.321 502.937 284.32 501.76C284.32 391.732 264.4 263.105 255.76 212.741C247.12 263.105 227.2 391.732 227.2 501.76C227.199 502.937 226.889 504.077 226.321 504.99C225.753 505.903 224.962 506.533 224.08 506.775C202.072 513.672 179.128 513.672 157.12 506.775C156.238 506.533 155.447 505.903 154.879 504.99C154.311 504.077 154.001 502.937 154 501.76C154 487.236 154.16 145.763 164.96 75.1282L170.08 41.796H341.44L346.56 75.1282C357.36 145.763 357.52 487.236 357.52 501.76ZM335.68 4.07515C335.48 2.91438 334.982 1.87774 334.269 1.13672C333.556 0.395701 332.671 -0.00529921 331.76 5.28886e-05H179.76C178.849 -0.00529921 177.964 0.395701 177.251 1.13672C176.538 1.87774 176.04 2.91438 175.84 4.07515C175.84 4.07515 175.84 4.17964 171.68 31.347H339.84C335.68 4.17964 335.68 4.07515 335.68 4.07515Z" fill="black"/>
</svg>
