<svg width="512" height="512" viewBox="0 0 512 512" fill="none" xmlns="http://www.w3.org/2000/svg">
<path d="M236 107.573C235.531 108.284 234.9 108.872 234.158 109.289C233.417 109.706 232.586 109.94 231.736 109.971C230.885 110.002 230.04 109.83 229.269 109.469C228.499 109.107 227.826 108.567 227.307 107.893L183.627 50.56L112.427 80.2667C87.06 90.9661 66.4209 110.482 54.32 135.211L49.1733 153.435L20.64 402.027L106.187 411.36L122.773 256L122.667 490.667C122.671 492.08 123.234 493.434 124.233 494.433C125.233 495.433 126.587 495.996 128 496H250.667V85.2267L236 107.573ZM236.213 392.107C235.159 392.107 234.127 391.794 233.25 391.208C232.373 390.622 231.69 389.789 231.286 388.814C230.882 387.84 230.777 386.767 230.982 385.733C231.188 384.698 231.696 383.748 232.442 383.002C233.188 382.256 234.138 381.748 235.173 381.542C236.207 381.337 237.28 381.442 238.254 381.846C239.229 382.25 240.062 382.933 240.648 383.81C241.234 384.687 241.547 385.718 241.547 386.773C241.542 388.187 240.979 389.541 239.98 390.54C238.981 391.539 237.627 392.102 236.213 392.107ZM236.213 307.787C235.159 307.787 234.127 307.474 233.25 306.888C232.373 306.302 231.69 305.469 231.286 304.494C230.882 303.52 230.777 302.447 230.982 301.413C231.188 300.378 231.696 299.428 232.442 298.682C233.188 297.936 234.138 297.428 235.173 297.222C236.207 297.017 237.28 297.122 238.254 297.526C239.229 297.93 240.062 298.613 240.648 299.49C241.234 300.367 241.547 301.399 241.547 302.453C241.542 303.867 240.979 305.221 239.98 306.22C238.981 307.219 237.627 307.782 236.213 307.787ZM236.213 223.467C235.159 223.467 234.127 223.154 233.25 222.568C232.373 221.982 231.69 221.149 231.286 220.174C230.882 219.2 230.777 218.127 230.982 217.093C231.188 216.058 231.696 215.108 232.442 214.362C233.188 213.616 234.138 213.108 235.173 212.902C236.207 212.697 237.28 212.802 238.254 213.206C239.229 213.61 240.062 214.293 240.648 215.17C241.234 216.047 241.547 217.079 241.547 218.133C241.542 219.547 240.979 220.901 239.98 221.9C238.981 222.899 237.627 223.462 236.213 223.467ZM236.213 139.093C235.159 139.093 234.127 138.781 233.25 138.195C232.373 137.608 231.69 136.776 231.286 135.801C230.882 134.826 230.777 133.754 230.982 132.72C231.188 131.685 231.696 130.735 232.442 129.989C233.188 129.243 234.138 128.735 235.173 128.529C236.207 128.323 237.28 128.429 238.254 128.833C239.229 129.236 240.062 129.92 240.648 130.797C241.234 131.674 241.547 132.705 241.547 133.76C241.549 134.461 241.412 135.155 241.145 135.803C240.878 136.452 240.485 137.04 239.989 137.536C239.494 138.032 238.905 138.424 238.257 138.692C237.609 138.959 236.914 139.095 236.213 139.093ZM19.4667 412.64L16.0533 442.24C15.9719 442.934 16.029 443.637 16.2214 444.309C16.4139 444.981 16.7378 445.608 17.1743 446.154C17.6109 446.7 18.1515 447.153 18.7647 447.488C19.3779 447.824 20.0516 448.034 20.7467 448.107L96 456.32C97.4073 456.468 98.8157 456.051 99.9157 455.161C101.016 454.271 101.717 452.98 101.867 451.573L105.013 421.973L19.4667 412.64ZM198.347 22.8267L190.613 42.1333L231.2 95.4133L249.013 68.2667L198.347 22.8267ZM313.707 22.8267L262.987 68.2667L280.8 95.4133L321.387 42.1333L313.707 22.8267ZM293.813 158.507V220.853L322.827 235.36L351.84 220.853V158.507H293.813ZM293.813 158.507V220.853L322.827 235.36L351.84 220.853V158.507H293.813ZM293.813 158.507V220.853L322.827 235.36L351.84 220.853V158.507H293.813ZM293.813 158.507V220.853L322.827 235.36L351.84 220.853V158.507H293.813ZM293.813 158.507V220.853L322.827 235.36L351.84 220.853V158.507H293.813ZM293.813 158.507V220.853L322.827 235.36L351.84 220.853V158.507H293.813ZM491.36 402.08L462.827 153.435L457.68 135.205C445.578 110.479 424.939 90.9648 399.573 80.2667L328.373 50.6133L284.693 107.893C284.174 108.567 283.501 109.107 282.731 109.469C281.96 109.83 281.115 110.002 280.264 109.971C279.414 109.94 278.583 109.706 277.842 109.289C277.1 108.872 276.469 108.284 276 107.573L261.333 85.2267V496H384C385.413 495.996 386.767 495.433 387.767 494.433C388.766 493.434 389.329 492.08 389.333 490.667L389.227 256.267L405.813 411.413L491.36 402.08ZM362.507 224.16C362.5 225.151 362.224 226.122 361.707 226.968C361.19 227.813 360.453 228.502 359.573 228.96L325.227 246.08C324.485 246.463 323.662 246.664 322.827 246.664C321.992 246.664 321.169 246.463 320.427 246.08L286.133 228.96C285.24 228.514 284.489 227.83 283.961 226.982C283.434 226.135 283.152 225.158 283.147 224.16V153.173C283.151 151.76 283.714 150.406 284.713 149.407C285.713 148.407 287.067 147.844 288.48 147.84H357.173C358.587 147.844 359.941 148.407 360.94 149.407C361.939 150.406 362.502 151.76 362.507 153.173V224.16ZM293.813 220.853L322.827 235.36L351.84 220.853V158.507H293.813V220.853ZM293.813 158.507V220.853L322.827 235.36L351.84 220.853V158.507H293.813ZM293.813 158.507V220.853L322.827 235.36L351.84 220.853V158.507H293.813ZM293.813 158.507V220.853L322.827 235.36L351.84 220.853V158.507H293.813ZM293.813 158.507V220.853L322.827 235.36L351.84 220.853V158.507H293.813ZM492.533 412.64L406.933 422.027L410.133 451.68C410.205 452.378 410.414 453.054 410.748 453.671C411.082 454.287 411.535 454.832 412.08 455.273C412.625 455.714 413.252 456.043 413.925 456.241C414.598 456.439 415.303 456.502 416 456.427L491.253 448.107C491.948 448.034 492.622 447.824 493.235 447.488C493.849 447.153 494.389 446.7 494.826 446.154C495.262 445.608 495.586 444.981 495.779 444.309C495.971 443.637 496.028 442.934 495.947 442.24L492.533 412.64ZM293.813 158.507V220.853L322.827 235.36L351.84 220.853V158.507H293.813ZM206.72 16L256 60.16L305.28 16H206.72ZM293.813 158.507V220.853L322.827 235.36L351.84 220.853V158.507H293.813Z" fill="black"/>
</svg>
