<svg width="512" height="512" viewBox="0 0 512 512" fill="none" xmlns="http://www.w3.org/2000/svg">
<g clip-path="url(#clip0_495_110)">
<path d="M509.9 321.8C500.3 290.2 491.9 258.2 480.4 227.4C470.1 199.4 457.8 172.2 443.6 145.9C435.7 131.3 429 117.5 427.8 100.7C426.6 84.2001 419.2 78.4001 402.4 78.2001C389.8 78.1001 377.2 78.1001 364.6 78.1001H110.4C92.5 78.1001 86 84.0001 83.6 101.7C83.1 104.7 82.7 107.8 82.6 110.8C82.5 120.6 78.8 128.8 73.5 137.2C64 152.4 53.7 167.8 47.7 184.5C31.9 227.9 18.1 272 3.8 316C-4.8 342.4 0.299999 352.5 25.9 362.4C83.3 384.7 140.7 407 198 429.3C222.4 438.8 234.9 433 243.4 408.4C246.7 398.8 250.1 389.3 253.5 379.7C253.8 378.7 254.7 378.1 255.8 378C256.7 378 257.5 378.4 257.9 379.1C258.2 379.5 258.5 380 258.7 380.5C262.5 391.1 266.2 401.6 270 412.2C276.9 431.4 290.6 438.2 309.2 431C370.1 407.5 431 383.8 491.8 360C509.9 353.1 515.6 340.6 509.9 321.8ZM294.2 179.1C280.7 176.1 273.1 166 269 153.4C265.8 143.7 263.9 133.7 260.9 124C260.8 123.8 260.8 123.6 260.7 123.4C258.8 119.2 252.5 119.2 250.6 123.4C250.5 123.6 250.4 123.9 250.3 124.1C247.3 133.8 245.3 143.9 242.2 153.5C238.5 165 231.6 173.9 219.9 178.5C214.3 180.7 208.8 181 205.9 174.7C203 168.4 207.4 165.5 212 161.7C217.6 157.1 223 150.9 225.9 144.3C229.9 135.1 231.1 124.6 234.4 115.1C237.8 105.3 244.6 99.2001 256.5 99.1001C264.5 99.6001 271.8 103.1 275 111.6C278.6 121.4 281.2 131.6 284.1 141.7C286.8 151.1 290.4 159.3 300.8 163.2C301.7 163.6 302.3 164.3 302.7 165.2C305.2 169.8 303.6 175.6 299 178.1C298.3 178.5 297.7 178.7 296.9 178.9C296.1 179.3 295.1 179.3 294.2 179.1Z" fill="black"/>
</g>
<defs>
<clipPath id="clip0_495_110">
<rect width="512" height="512" fill="white"/>
</clipPath>
</defs>
</svg>
