<svg width="512" height="512" viewBox="0 0 512 512" fill="none" xmlns="http://www.w3.org/2000/svg">
<g clip-path="url(#clip0_495_88)">
<path d="M507.332 471.742L425.911 155.102C424.474 149.521 421.164 140.812 418.53 135.689L395.134 90.1836C392.051 84.1889 384.356 79.4915 377.616 79.4915H134.387C127.641 79.4915 119.958 84.2002 116.897 90.2114L92.998 137.138C90.3856 142.27 87.0929 150.983 85.6592 156.561L4.66835 471.742C3.76472 475.257 4.40458 478.764 6.4226 481.366C8.44062 483.969 11.679 485.46 15.3087 485.46H33.5075C38.538 485.46 46.5053 487.52 50.9074 489.957L86.3432 509.586C89.1525 511.142 92.8327 511.999 96.7034 511.999C100.574 511.999 104.254 511.142 107.064 509.586L142.499 489.957C144.361 488.926 147.023 488.334 149.803 488.334C152.583 488.334 155.245 488.926 157.106 489.957L192.542 509.586C195.352 511.142 199.032 511.999 202.902 511.999C206.773 511.999 210.453 511.142 213.263 509.586L248.698 489.957C250.56 488.926 253.222 488.334 256.002 488.334C258.782 488.334 261.444 488.926 263.305 489.957L298.741 509.586C301.551 511.142 305.231 511.999 309.101 511.999C312.972 511.999 316.652 511.142 319.462 509.586L354.897 489.957C356.759 488.926 359.421 488.334 362.201 488.334C364.981 488.334 367.643 488.926 369.504 489.957L404.94 509.586C407.75 511.142 411.43 511.999 415.3 511.999C419.171 511.999 422.851 511.142 425.661 509.586L461.096 489.957C465.497 487.519 473.466 485.46 478.496 485.46H496.696C500.325 485.46 503.563 483.969 505.581 481.366C507.599 478.764 508.235 475.257 507.332 471.742ZM132.891 59.8338H379.11C384.33 59.8338 388.575 55.5883 388.575 50.3684V9.46538C388.575 4.2468 384.33 0 379.11 0H132.891C127.672 0 123.426 4.2468 123.426 9.46538V50.3684C123.426 55.5883 127.673 59.8338 132.891 59.8338ZM226.973 18.5585C226.973 14.3823 230.37 10.9861 234.546 10.9861H277.456C281.632 10.9861 285.028 14.3823 285.028 18.5585V41.2754C285.028 45.4515 281.632 48.8477 277.456 48.8477H234.546C230.37 48.8477 226.973 45.4515 226.973 41.2754V18.5585Z" fill="black"/>
<path d="M239.594 23.6064H272.407V36.227H239.594V23.6064Z" fill="black"/>
</g>
<defs>
<clipPath id="clip0_495_88">
<rect width="512" height="512" fill="white"/>
</clipPath>
</defs>
</svg>
