<svg width="512" height="512" viewBox="0 0 512 512" fill="none" xmlns="http://www.w3.org/2000/svg">
<g clip-path="url(#clip0_495_101)">
<path d="M256 76.3584C278.178 76.3584 297.334 62.2177 304.216 41.4155C291.087 45.0295 274.352 47.2108 256 47.2108C237.649 47.2108 220.915 45.0295 207.788 41.4155C214.666 62.216 233.82 76.3584 256 76.3584Z" fill="black"/>
<path d="M511.362 101.939C510.842 100.472 510.034 99.1226 508.987 97.9706C507.94 96.8185 506.673 95.8865 505.262 95.2289L407.648 50.1664C386.966 43.1592 365.822 37.5955 344.37 33.5153C341.426 32.9297 338.369 33.5217 335.857 35.1643C333.344 36.8069 331.576 39.3691 330.931 42.3009C323.131 76.6391 292.734 102.348 255.998 102.348C219.264 102.348 188.865 76.6408 181.067 42.3009C180.42 39.3705 178.65 36.8102 176.138 35.1682C173.626 33.5262 170.571 32.9329 167.627 33.5153C146.165 37.5997 125.012 43.1633 104.318 50.1664L6.73769 95.2271C5.32196 95.875 4.05271 96.8038 3.00704 97.9573C1.96137 99.1108 1.16111 100.465 0.654868 101.937C-0.382902 104.927 -0.195792 108.155 1.26644 110.976L43.6435 194.607C44.8574 197.031 46.8885 198.948 49.3784 200.021C51.8683 201.093 54.657 201.252 57.2523 200.468L104.319 186.518V467.132C104.319 473.504 109.519 478.701 115.908 478.701H396.094C402.466 478.701 407.65 473.502 407.65 467.132V186.521L454.749 200.472C455.825 200.796 456.943 200.961 458.067 200.962C460.202 200.958 462.294 200.362 464.111 199.241C465.927 198.12 467.398 196.517 468.358 194.611L510.751 110.979C511.453 109.59 511.87 108.074 511.975 106.521C512.08 104.968 511.872 103.41 511.362 101.939Z" fill="black"/>
</g>
<defs>
<clipPath id="clip0_495_101">
<rect width="512" height="512" fill="white"/>
</clipPath>
</defs>
</svg>
